<svg width="209" height="114" viewBox="0 0 209 114" fill="none" xmlns="http://www.w3.org/2000/svg">
    <g id="Frame" clip-path="url(#clip0_7828_61693)">
        <path id="Vector" d="M95.8169 32.3227V42.8333H94.5592V32.3227H91.147V31.2153H99.2273V32.3245L95.8169 32.3227Z" fill="#333333"/>
        <path id="Vector_2" d="M102.172 42.8333V31.2153H109.49V32.3245H103.431V36.4198H108.587V37.5308H103.431V41.7259H109.49V42.8333H102.172Z" fill="#333333"/>
        <path id="Vector_3" d="M119.476 42.8333V32.3227H113.896V42.8333H112.639V31.2153H120.741V42.8333H119.476Z" fill="#333333"/>
        <path id="Vector_4" d="M131.596 42.8333V32.3227H127.589V36.2982C127.589 41.1995 126.398 42.8333 124.146 42.8333H123.557V41.7241H123.871C125.328 41.7241 126.37 40.762 126.37 35.9297V31.2153H132.86V42.8333H131.596Z" fill="#333333"/>
        <path id="Vector_5" d="M143.894 42.8333V33.3501L137.9 42.8333H136.708V31.2153H137.966V40.6803L143.96 31.2153H145.151V42.8333H143.894Z" fill="#333333"/>
        <path id="Vector_6" d="M157.266 45.6416V42.8333H149.005V31.2153H150.258V41.7259H155.837V31.2153H157.095V41.7259H158.504V45.6434L157.266 45.6416Z" fill="#333333"/>
        <path id="Vector_7" d="M169.19 42.8333L168.247 40.2065H163.091L162.153 42.8333H160.813L165.151 31.2153H166.21L170.53 42.8333H169.19ZM165.691 32.9925L163.481 39.1282H167.886L165.691 32.9925Z" fill="#333333"/>
        <path id="Vector_8" d="M96.0176 63.555C95.4592 63.5615 94.9052 63.458 94.3879 63.2508C93.8706 63.0435 93.4004 62.7365 93.005 62.3478C91.9001 61.2586 91.9001 60.1113 91.9001 57.648C91.9001 55.1846 91.9001 54.0392 93.005 52.9463C93.4007 52.558 93.8709 52.2512 94.3881 52.044C94.9053 51.8367 95.4593 51.7331 96.0176 51.7392C98.1371 51.7392 99.7005 53.0099 100.107 55.1991H98.8185C98.5036 53.7778 97.4926 52.8392 96.0195 52.8392C95.6419 52.8351 95.2674 52.9052 94.9177 53.0455C94.568 53.1857 94.2502 53.3933 93.9828 53.6561C93.2462 54.4059 93.156 55.2064 93.156 57.6389C93.156 60.0714 93.2389 60.8683 93.9828 61.6199C94.2502 61.8827 94.568 62.0903 94.9177 62.2305C95.2674 62.3708 95.6419 62.4409 96.0195 62.4368C97.4926 62.4368 98.5367 61.5055 98.8516 60.0859H100.109C99.7263 62.2825 98.1206 63.555 96.0176 63.555Z" fill="#333333"/>
        <path id="Vector_9" d="M111.348 57.648C111.348 59.9643 111.313 61.2786 110.243 62.3478C109.436 63.1219 108.355 63.5551 107.229 63.5551C106.104 63.5551 105.022 63.1219 104.216 62.3478C103.14 61.2877 103.111 59.9643 103.111 57.648V56.7403C103.111 55.3534 103.21 53.9321 104.216 52.9373C105.022 52.1632 106.104 51.73 107.229 51.73C108.355 51.73 109.436 52.1632 110.243 52.9373C111.269 53.9484 111.348 55.4188 111.348 56.8384V57.648ZM110.088 57.0271C110.088 55.6566 110.038 54.4476 109.261 53.6815C108.994 53.4174 108.677 53.2079 108.327 53.0649C107.978 52.9219 107.603 52.8483 107.225 52.8483C106.846 52.8483 106.472 52.9219 106.122 53.0649C105.773 53.2079 105.455 53.4174 105.188 53.6815C104.359 54.4966 104.359 55.7056 104.359 57.3122V58.4685C104.359 59.7265 104.426 60.8702 105.188 61.6199C105.455 61.884 105.773 62.0935 106.122 62.2365C106.472 62.3795 106.846 62.4531 107.225 62.4531C107.603 62.4531 107.978 62.3795 108.327 62.2365C108.677 62.0935 108.994 61.884 109.261 61.6199C110.072 60.8211 110.088 59.5631 110.088 58.2252V57.0271Z" fill="#333333"/>
        <path id="Vector_10" d="M123.1 66.2652V63.457H114.837V51.839H116.095V62.3478H121.675V51.8354H122.934V62.3478H124.341V66.2652H123.1Z" fill="#333333"/>
        <path id="Vector_11" d="M134.57 63.457V53.9738L128.576 63.457H127.385V51.839H128.643V61.3058L134.635 51.839H135.828V63.457H134.57Z" fill="#333333"/>
        <path id="Vector_12" d="M147.013 63.457L146.068 60.8302H140.912L139.969 63.457H138.627L142.966 51.839H144.024L148.346 63.457H147.013ZM143.514 53.6162L141.305 59.7519H145.709L143.514 53.6162Z" fill="#333333"/>
        <path id="Vector_13" d="M158.467 63.457V52.9464H154.46V56.9291C154.46 61.8305 153.268 63.4642 151.016 63.4642H150.42V62.3478H150.735C152.191 62.3478 153.235 61.3857 153.235 56.5534V51.8336H159.725V63.4515L158.467 63.457Z" fill="#333333"/>
        <path id="Vector_14" d="M167.998 63.457H163.579V51.839H164.836V56.6223H167.998C170.208 56.6223 171.641 57.9947 171.641 60.0496C171.641 62.1046 170.184 63.457 167.998 63.457ZM167.884 57.7279H164.836V62.3478H167.884C169.457 62.3478 170.368 61.4982 170.368 60.046C170.368 58.5938 169.457 57.7279 167.884 57.7279Z" fill="#333333"/>
        <path id="Vector_15" d="M181.527 63.457V58.1526H175.931V63.457H174.672V51.839H175.931V57.0471H181.527V51.8354H182.785V63.4533L181.527 63.457Z" fill="#333333"/>
        <path id="Vector_16" d="M191.061 63.457H186.641V51.839H187.899V56.6223H191.062C193.272 56.6223 194.703 57.9947 194.703 60.0496C194.703 62.1046 193.245 63.457 191.061 63.457ZM187.897 57.7279V62.3478H190.954C192.526 62.3478 193.436 61.4982 193.436 60.046C193.436 58.5938 192.517 57.7279 190.954 57.7279H187.897ZM196.285 63.457V51.839H197.543V63.457H196.285Z" fill="#333333"/>
        <path id="Vector_17" d="M207.543 63.457L204.678 58.5774L201.798 63.457H200.373L203.984 57.501L200.605 51.8354H202.063L204.678 56.4227L207.295 51.8354H208.751L205.358 57.501L209 63.457H207.543Z" fill="#333333"/>
        <path id="Vector_18" d="M95.8169 72.9873V83.4961H94.5592V72.9873H91.147V71.8782H99.2273V72.9873H95.8169Z" fill="#333333"/>
        <path id="Vector_19" d="M102.172 83.4961V71.8782H109.49V72.9873H103.431V77.0863H108.587V78.1954H103.431V82.3906H109.49V83.4961H102.172Z" fill="#333333"/>
        <path id="Vector_20" d="M119.093 83.4961L116.228 78.6184L113.348 83.4961H111.922L115.533 77.5383L112.154 71.8782H113.613L116.228 76.4654L118.844 71.8782H120.301L116.907 77.5419L120.549 83.4961H119.093Z" fill="#333333"/>
        <path id="Vector_21" d="M130.226 83.4961V78.1954H124.63V83.4961H123.372V71.8782H124.63V77.0863H130.226V71.8782H131.484V83.4961H130.226Z" fill="#333333"/>
        <path id="Vector_22" d="M143.242 77.6871C143.242 80.0053 143.207 81.3177 142.137 82.3888C141.33 83.1629 140.249 83.596 139.123 83.596C137.998 83.596 136.916 83.1629 136.11 82.3888C135.033 81.3268 135.005 80.0053 135.005 77.6871V76.7904C135.005 75.4017 135.104 73.9821 136.11 72.9782C136.916 72.2041 137.998 71.771 139.123 71.771C140.249 71.771 141.33 72.2041 142.137 72.9782C143.163 73.9894 143.242 75.4598 143.242 76.8811V77.6871ZM141.982 77.0663C141.982 75.6957 141.934 74.4868 141.155 73.7207C140.888 73.4566 140.571 73.247 140.221 73.104C139.872 72.9611 139.497 72.8875 139.119 72.8875C138.74 72.8875 138.366 72.9611 138.016 73.104C137.667 73.247 137.349 73.4566 137.082 73.7207C136.253 74.5358 136.253 75.7448 136.253 77.3513V78.5113C136.253 79.7675 136.32 80.9093 137.082 81.6608C137.349 81.925 137.667 82.1345 138.016 82.2775C138.366 82.4205 138.74 82.494 139.119 82.494C139.497 82.494 139.872 82.4205 140.221 82.2775C140.571 82.1345 140.888 81.925 141.155 81.6608C141.967 80.8603 141.982 79.6023 141.982 78.2662V77.0663Z" fill="#333333"/>
        <path id="Vector_23" d="M153.388 83.4961V72.9873H149.381V76.9701C149.381 81.8714 148.19 83.5052 145.938 83.5052H145.343V82.396H145.656C147.112 82.396 148.157 81.4321 148.157 76.6016V71.8782H154.646V83.4961H153.388Z" fill="#333333"/>
        <path id="Vector_24" d="M166.409 77.6871C166.409 80.0053 166.376 81.3177 165.304 82.3888C164.498 83.1629 163.416 83.596 162.291 83.596C161.165 83.596 160.084 83.1629 159.277 82.3888C158.2 81.3268 158.172 80.0053 158.172 77.6871V76.7904C158.172 75.4017 158.27 73.9821 159.277 72.9782C160.084 72.2041 161.165 71.771 162.291 71.771C163.416 71.771 164.498 72.2041 165.304 72.9782C166.33 73.9894 166.409 75.4598 166.409 76.8811V77.6871ZM165.151 77.0663C165.151 75.6957 165.102 74.4868 164.323 73.7207C164.055 73.4566 163.738 73.247 163.389 73.104C163.039 72.9611 162.664 72.8875 162.286 72.8875C161.908 72.8875 161.533 72.9611 161.183 73.104C160.834 73.247 160.517 73.4566 160.249 73.7207C159.423 74.5358 159.423 75.7448 159.423 77.3513V78.5113C159.423 79.7675 159.489 80.9093 160.249 81.6608C160.517 81.925 160.834 82.1345 161.183 82.2775C161.533 82.4205 161.908 82.494 162.286 82.494C162.664 82.494 163.039 82.4205 163.389 82.2775C163.738 82.1345 164.055 81.925 164.323 81.6608C165.135 80.8603 165.151 79.6023 165.151 78.2662V77.0663Z" fill="#333333"/>
        <path id="Vector_25" d="M171.234 72.9873V83.4961H169.976V71.8782H177.062V72.9873H171.234Z" fill="#333333"/>
        <path id="Vector_26" d="M187.203 83.4961V74.0166L181.209 83.4961H180.016V71.8782H181.273V81.345L187.271 71.8782H188.464V83.4961H187.203Z" fill="#333333"/>
        <path id="Vector_27" d="M199.498 83.4961V74.0166L193.506 83.4961H192.313V71.8782H193.57V81.345L199.564 71.8782H200.756V83.4961H199.498ZM196.535 71.152C195.16 71.152 194.217 70.5494 194.117 69.0953H195.176C195.243 69.8958 195.729 70.3025 196.535 70.3025C197.342 70.3025 197.824 69.8958 197.892 69.0953H198.953C198.854 70.5403 197.909 71.152 196.535 71.152Z" fill="#333333"/>
        <g id="Frame 1">
            <g id="Group 2">
                <path id="Vector_28" d="M8.73492 21.1171C8.73451 21.6537 8.59087 22.1807 8.31848 22.645L16.5779 27.3533C16.8491 26.8883 17.2395 26.5021 17.7099 26.2336C18.1803 25.965 18.714 25.8237 19.2574 25.8237C19.8007 25.8237 20.3344 25.965 20.8048 26.2336C21.2752 26.5021 21.6656 26.8883 21.9368 27.3533L30.1962 22.6414C29.9229 22.1774 29.7789 21.6502 29.7789 21.1135C29.7789 20.5767 29.9229 20.0495 30.1962 19.5855L28.0044 18.3318C27.6362 18.9517 27.3953 19.6372 27.2957 20.3492C27.196 21.0611 27.2395 21.7855 27.4236 22.4808L23.1953 24.9053C22.1451 23.8888 20.7333 23.3195 19.2628 23.3195C17.7924 23.3195 16.3806 23.8888 15.3304 24.9053L11.0984 22.4844C11.3398 21.5836 11.3398 20.6361 11.0984 19.7353L15.3213 17.3288C15.9345 17.923 16.6774 18.3705 17.493 18.6371C18.3086 18.9036 19.1752 18.9821 20.0262 18.8664C20.8773 18.7508 21.6902 18.4441 22.4026 17.9699C23.115 17.4957 23.708 16.8667 24.1359 16.131L21.9441 14.8773C21.6729 15.3422 21.2825 15.7284 20.8121 15.9969C20.3417 16.2655 19.808 16.4068 19.2647 16.4068C18.7214 16.4068 18.1876 16.2655 17.7172 15.9969C17.2469 15.7284 16.8564 15.3422 16.5852 14.8773L8.31665 19.5873C8.59096 20.0516 8.73532 20.5795 8.73492 21.1171Z" fill="url(#paint0_linear_7828_61693)"/>
                <path id="Vector_29" d="M27.9944 8.35896L30.1862 7.10522C30.4574 7.57101 30.8481 7.95793 31.3191 8.22698C31.79 8.49604 32.3244 8.63771 32.8684 8.63771C33.4124 8.63771 33.9468 8.49604 34.4177 8.22698C34.8886 7.95793 35.2794 7.57101 35.5506 7.10522L37.7424 8.35896C37.0054 9.61601 35.8021 10.5405 34.3871 10.9368V15.7533C35.8008 16.1491 37.0033 17.0722 37.7406 18.3275L35.5488 19.5812C35.2776 19.1163 34.8871 18.7301 34.4167 18.4615C33.9463 18.193 33.4126 18.0516 32.8693 18.0516C32.326 18.0516 31.7923 18.193 31.3219 18.4615C30.8515 18.7301 30.461 19.1163 30.1898 19.5812L27.998 18.3275C28.7345 17.0719 29.9364 16.1481 31.3497 15.7515V10.935C29.9355 10.5383 28.7325 9.61469 27.9944 8.35896ZM41.6164 10.5598C41.1175 11.4043 40.8546 12.3646 40.8546 13.3423C40.8546 14.3201 41.1175 15.2803 41.6164 16.1249L43.8082 14.8712C43.5348 14.4069 43.3909 13.8794 43.3909 13.3423C43.3909 12.8053 43.5348 12.2778 43.8082 11.8135L41.6164 10.5598ZM22.3505 13.345C22.3509 13.8817 22.2072 14.409 21.9341 14.873L24.1259 16.1249C24.6244 15.2806 24.8871 14.3206 24.8871 13.3432C24.8871 12.3658 24.6244 11.4059 24.1259 10.5616L21.9341 11.8243C22.206 12.2862 22.3496 12.8108 22.3505 13.345Z" fill="url(#paint1_linear_7828_61693)"/>
                <path id="Vector_30" d="M40.8511 28.8718C40.8521 27.8964 41.1142 26.9386 41.6109 26.0956L43.8027 27.3493C43.5301 27.8135 43.3865 28.3406 43.3865 28.8773C43.3865 29.4139 43.5301 29.941 43.8027 30.4052L41.6109 31.6589C41.1117 30.813 40.8494 29.851 40.8511 28.8718ZM32.873 24.169C32.3296 24.1692 31.7958 24.0278 31.3254 23.7593C30.8549 23.4907 30.4645 23.1044 30.1935 22.6393L21.9341 27.3511C22.2072 27.8155 22.3511 28.3429 22.3511 28.88C22.3511 29.417 22.2072 29.9445 21.9341 30.4088L24.1259 31.6625C24.8686 30.4102 25.0776 28.9179 24.7067 27.5135L28.9332 25.1034C29.6077 25.7515 30.4351 26.2233 31.3405 26.4762V35.7827L32.8693 36.654L34.3963 35.7827V26.4672C35.8102 26.0709 37.0128 25.1472 37.7497 23.8912L35.5579 22.6375C35.2865 23.1036 34.8953 23.4907 34.4238 23.7596C33.9524 24.0285 33.4174 24.1697 32.873 24.169Z" fill="url(#paint2_linear_7828_61693)"/>
                <path id="Vector_31" d="M0.754982 33.8677L2.94678 35.1214C3.2176 34.6552 3.60823 34.2678 4.07918 33.9984C4.55014 33.729 5.08474 33.5871 5.62899 33.5871C6.17323 33.5871 6.70783 33.729 7.17879 33.9984C7.64975 34.2678 8.04037 34.6552 8.31119 35.1214L10.503 33.8677C9.76635 32.61 8.56299 31.6848 7.14772 31.2881V26.4734C8.0569 26.2213 8.88726 25.7473 9.56234 25.0952L13.7852 27.5052C13.6005 28.202 13.5568 28.9279 13.6564 29.6414C13.7561 30.3549 13.9972 31.0419 14.366 31.6633L16.5578 30.4005C16.2846 29.9365 16.1407 29.4094 16.1407 28.8726C16.1407 28.3359 16.2846 27.8087 16.5578 27.3447L8.29841 22.6364C8.02733 23.1018 7.63682 23.4884 7.16624 23.7572C6.69567 24.026 6.16165 24.1676 5.61803 24.1676C5.0744 24.1676 4.54039 24.026 4.06981 23.7572C3.59923 23.4884 3.20872 23.1018 2.93764 22.6364L0.74585 23.8901C1.48392 25.1511 2.69097 26.0779 4.11025 26.4734V31.2899C2.69529 31.6862 1.49198 32.6107 0.754982 33.8677Z" fill="url(#paint3_linear_7828_61693)"/>
                <path id="Vector_32" d="M11.2773 36.6475C11.277 37.6263 11.0135 38.5875 10.5138 39.4328L8.32202 38.179C8.59536 37.7147 8.73935 37.1873 8.73935 36.6502C8.73935 36.1131 8.59536 35.5856 8.32202 35.1214L10.5138 33.8676C11.0132 34.7111 11.2766 35.6704 11.2773 36.6475ZM19.2554 41.3539C19.7992 41.3538 20.3335 41.4954 20.8042 41.7642C21.275 42.0331 21.6656 42.4199 21.9367 42.8855L32.8756 36.6475L31.3468 35.7762L23.1952 40.4303C22.5813 39.8368 21.8379 39.39 21.022 39.1242C20.2062 38.8584 19.3395 38.7807 18.4885 38.8971C17.6375 39.0134 16.8248 39.3207 16.1127 39.7953C15.4006 40.27 14.8081 40.8994 14.3805 41.6354L16.5723 42.8891C16.8431 42.4226 17.2338 42.0349 17.705 41.7654C18.1761 41.4958 18.7109 41.3539 19.2554 41.3539ZM19.2554 34.4521C20.2448 34.4507 21.2164 34.1923 22.0728 33.7027C22.9291 33.2132 23.6399 32.5099 24.134 31.6632L21.9422 30.4095C21.671 30.8745 21.2805 31.2606 20.8102 31.5292C20.3398 31.7977 19.806 31.9391 19.2627 31.9391C18.7194 31.9391 18.1857 31.7977 17.7153 31.5292C17.2449 31.2606 16.8545 30.8745 16.5833 30.4095L14.3915 31.6722C14.8853 32.5152 15.5943 33.2155 16.4478 33.7033C17.3013 34.1911 18.2694 34.4493 19.2554 34.4521Z" fill="url(#paint4_linear_7828_61693)"/>
                <path id="Vector_33" d="M2.53934 36.6433C2.53915 36.108 2.68218 35.5821 2.95396 35.119L0.76216 33.8652C0.263642 34.7099 0.000976562 35.6701 0.000976562 36.6478C0.000976562 37.6255 0.263642 38.5857 0.76216 39.4304L2.95396 38.1676C2.68178 37.7046 2.53871 37.1787 2.53934 36.6433Z" fill="#B70E0C"/>
                <path id="Vector_34" d="M16.5794 45.9414L8.32183 50.6514C8.05125 50.1843 7.66052 49.7961 7.18919 49.5262C6.71785 49.2562 6.18266 49.114 5.63779 49.114C5.09293 49.114 4.55773 49.2562 4.0864 49.5262C3.61507 49.7961 3.22433 50.1843 2.95376 50.6514L0.761963 49.3977C1.18892 48.6609 1.78119 48.0306 2.49328 47.5551C3.20537 47.0797 4.01833 46.7718 4.8697 46.6551C5.72107 46.5384 6.58821 46.616 7.40449 46.8819C8.22076 47.1478 8.96446 47.595 9.57846 48.1891L13.805 45.7808C13.4356 44.3765 13.6437 42.885 14.384 41.6318L16.5758 42.8855C16.3026 43.3498 16.1587 43.8773 16.1587 44.4143C16.1587 44.9514 16.3026 45.4788 16.5758 45.9432L16.5794 45.9414ZM5.63871 42.218C6.62734 42.2172 7.59837 41.9596 8.45434 41.4711C9.31032 40.9825 10.0211 40.2802 10.5154 39.4346L8.32365 38.1718C8.05258 38.6364 7.66237 39.0223 7.19231 39.2905C6.72225 39.5588 6.18892 39.7001 5.64601 39.7001C5.1031 39.7001 4.56977 39.5588 4.09971 39.2905C3.62965 39.0223 3.23944 38.6364 2.96837 38.1718L0.776575 39.4255C1.26864 40.2706 1.97668 40.9733 2.82992 41.4633C3.68316 41.9534 4.6517 42.2136 5.63871 42.218Z" fill="#E5005B"/>
                <path id="Vector_35" d="M61.6382 31.2852V26.4687C63.0528 26.0715 64.2555 25.1464 64.9917 23.889L62.7999 22.6353C62.529 23.1016 62.1384 23.4889 61.6675 23.7583C61.1965 24.0277 60.6619 24.1696 60.1177 24.1696C59.5734 24.1696 59.0388 24.0277 58.5679 23.7583C58.0969 23.4889 57.7063 23.1016 57.4354 22.6353L49.1797 27.3454C49.4528 27.8097 49.5967 28.3372 49.5967 28.8742C49.5967 29.4112 49.4528 29.9387 49.1797 30.4031L51.3715 31.6568C51.7417 31.036 51.984 30.349 52.0843 29.6354C52.1846 28.9218 52.141 28.1956 51.956 27.4987L56.1752 25.0851C56.8502 25.736 57.6798 26.2092 58.588 26.4615V31.2798C57.174 31.676 55.9714 32.5998 55.2345 33.8558L57.4263 35.1095C57.6974 34.6441 58.0879 34.2575 58.5585 33.9887C59.0291 33.7199 59.5631 33.5784 60.1067 33.5784C60.6503 33.5784 61.1843 33.7199 61.6549 33.9887C62.1255 34.2575 62.516 34.6441 62.7871 35.1095L64.9789 33.8558C64.2439 32.6044 63.0465 31.683 61.6382 31.2852Z" fill="url(#paint5_linear_7828_61693)"/>
                <path id="Vector_36" d="M63.207 36.6441C63.2066 37.1807 63.0629 37.7077 62.7905 38.172L64.9823 39.4258C65.4812 38.5809 65.744 37.6203 65.744 36.6423C65.744 35.6642 65.4812 34.7037 64.9823 33.8588L62.7905 35.1126C63.0635 35.578 63.2071 36.1063 63.207 36.6441Z" fill="#00A8B0"/>
                <path id="Vector_37" d="M57.4273 38.1643L55.2356 39.4181C54.7367 38.5735 54.4738 37.6133 54.4738 36.6355C54.4738 35.6577 54.7367 34.6975 55.2356 33.8529L57.4273 35.1067C57.154 35.571 57.01 36.0984 57.01 36.6355C57.01 37.1726 57.154 37.7001 57.4273 38.1643ZM42.5505 40.412L34.3916 35.7651L32.8701 36.64L43.8072 42.8762C44.0777 42.4099 44.4682 42.0225 44.939 41.753C45.4098 41.4836 45.9443 41.3417 46.4885 41.3417C47.0326 41.3417 47.5671 41.4836 48.0379 41.753C48.5088 42.0225 48.8992 42.4099 49.1698 42.8762L51.3616 41.6225C50.6253 40.3651 49.4227 39.44 48.0081 39.0429V34.2227C49.4201 33.8265 50.6211 32.9042 51.3579 31.6503L49.1661 30.3966C48.8947 30.8607 48.5043 31.2461 48.0343 31.5141C47.5643 31.782 47.0312 31.9231 46.4885 31.9231C45.9458 31.9231 45.4126 31.782 44.9426 31.5141C44.4726 31.2461 44.0823 30.8607 43.8108 30.3966L41.619 31.6503C42.3558 32.9042 43.5568 33.8265 44.9688 34.2227V39.0429C44.0598 39.2931 43.2285 39.7638 42.5505 40.412Z" fill="url(#paint6_linear_7828_61693)"/>
                <path id="Vector_38" d="M64.9891 49.3949L62.7973 50.6486C62.5262 50.1832 62.1357 49.7966 61.6651 49.5278C61.1946 49.259 60.6605 49.1174 60.1169 49.1174C59.5733 49.1174 59.0393 49.259 58.5687 49.5278C58.0981 49.7966 57.7076 50.1832 57.4365 50.6486L49.1753 45.9385C49.4485 45.4742 49.5923 44.9467 49.5923 44.4097C49.5923 43.8727 49.4485 43.3452 49.1753 42.8808L51.3671 41.6271C51.7358 42.2468 51.9769 42.9324 52.0766 43.6444C52.1763 44.3564 52.1325 45.0809 51.9479 45.7762L56.1781 48.188C56.7918 47.5955 57.5347 47.1496 58.3498 46.8845C59.165 46.6193 60.0307 46.5419 60.8808 46.6582C61.7309 46.7745 62.5428 47.0815 63.2543 47.5555C63.9657 48.0295 64.5579 48.6581 64.9854 49.393L64.9891 49.3949ZM60.1105 42.2098C61.0996 42.2089 62.0711 41.9511 62.9274 41.4622C63.7837 40.9733 64.4947 40.2706 64.9891 39.4245L62.7973 38.1708C62.5258 38.6357 62.1352 39.0218 61.6647 39.2903C61.1941 39.5588 60.6603 39.7001 60.1169 39.7001C59.5735 39.7001 59.0397 39.5588 58.5692 39.2903C58.0986 39.0218 57.708 38.6357 57.4365 38.1708L55.2447 39.4245C55.7378 40.2695 56.447 40.9717 57.3013 41.4608C58.1555 41.9499 59.1249 42.2088 60.1123 42.2116L60.1105 42.2098Z" fill="url(#paint7_linear_7828_61693)"/>
                <path id="Vector_39" d="M32.8721 46.6113C31.402 46.611 29.9903 47.1796 28.9397 48.1952L24.7113 45.7851C24.9525 44.8848 24.9525 43.938 24.7113 43.0377L32.8721 38.3818L41.0311 43.0305C40.8461 43.7277 40.8025 44.4542 40.9028 45.1681C41.0031 45.882 41.2453 46.5693 41.6156 47.1904L43.8073 45.9367C43.534 45.4724 43.39 44.9449 43.39 44.4078C43.39 43.8708 43.534 43.3433 43.8073 42.879L32.8721 36.6446L21.9351 42.8844C22.2082 43.3487 22.3521 43.8762 22.3521 44.4132C22.3521 44.9503 22.2082 45.4777 21.9351 45.9421L30.1963 50.6521C30.4674 50.1867 30.8579 49.8002 31.3285 49.5313C31.799 49.2625 32.3331 49.121 32.8767 49.121C33.4203 49.121 33.9543 49.2625 34.4249 49.5313C34.8955 49.8002 35.286 50.1867 35.5571 50.6521L37.7489 49.3894C37.2537 48.5449 36.5426 47.8438 35.6867 47.3562C34.8308 46.8686 33.8602 46.6118 32.8721 46.6113Z" fill="url(#paint8_linear_7828_61693)"/>
                <path id="Vector_40" d="M51.3731 57.164L49.1813 58.4267C48.9107 57.9605 48.5203 57.573 48.0495 57.3035C47.5787 57.0341 47.0442 56.8922 46.5 56.8922C45.9559 56.8922 45.4214 57.0341 44.9506 57.3035C44.4797 57.573 44.0893 57.9605 43.8187 58.4267L41.6269 57.173C42.12 56.3253 42.8308 55.6211 43.6875 55.1314C44.5442 54.6416 45.5166 54.3838 46.5064 54.3838C47.4963 54.3838 48.4686 54.6416 49.3253 55.1314C50.182 55.6211 50.8928 56.3253 51.3859 57.173L51.3731 57.164ZM57.0152 52.1779C57.0146 51.6417 57.1583 51.1151 57.4316 50.6518L49.1704 45.9417C48.8989 46.4058 48.5086 46.7912 48.0386 47.0592C47.5685 47.3271 47.0354 47.4682 46.4927 47.4682C45.95 47.4682 45.4169 47.3271 44.9469 47.0592C44.4769 46.7912 44.0865 46.4058 43.8151 45.9417L41.6233 47.1954C42.0515 47.9304 42.6444 48.5587 43.3566 49.0323C44.0688 49.5059 44.8813 49.8121 45.7318 49.9276C46.5824 50.043 47.4484 49.9646 48.2635 49.6984C49.0786 49.4321 49.8212 48.985 50.4343 48.3915L54.659 50.8015C54.4743 51.4989 54.4305 52.2253 54.5302 52.9394C54.6299 53.6535 54.871 54.3412 55.2398 54.9632L57.4316 53.7004C57.1608 53.2375 57.0178 52.7125 57.017 52.1779H57.0152ZM35.9721 52.1779C35.9724 52.7146 35.8287 53.2418 35.5557 53.7058L37.7475 54.9596C38.2476 54.1151 38.5112 53.1544 38.5112 52.1761C38.5112 51.1978 38.2476 50.2371 37.7475 49.3926L35.5557 50.6554C35.8321 51.1184 35.979 51.6458 35.9812 52.1833L35.9721 52.1779Z" fill="url(#paint9_linear_7828_61693)"/>
                <path id="Vector_41" d="M19.2523 54.3708C18.2617 54.3717 17.2888 54.6305 16.4317 55.1211C15.5746 55.6117 14.8635 56.3167 14.3701 57.1651L16.5619 58.4188C16.8325 57.9517 17.2232 57.5635 17.6946 57.2935C18.1659 57.0236 18.7011 56.8814 19.2459 56.8814C19.7908 56.8814 20.326 57.0236 20.7973 57.2935C21.2687 57.5635 21.6594 57.9517 21.93 58.4188L24.1218 57.1651C23.6292 56.3188 22.9201 55.6152 22.0654 55.1247C21.2108 54.6343 20.2407 54.3743 19.2523 54.3708Z" fill="url(#paint10_linear_7828_61693)"/>
                <path id="Vector_42" d="M10.512 54.966C11.0124 54.1196 11.2765 53.1573 11.2773 52.1771C11.2739 51.7139 11.2126 51.2528 11.0946 50.8043L15.323 48.3943C16.3738 49.411 17.7862 49.9805 19.2573 49.9805C20.7283 49.9805 22.1407 49.411 23.1915 48.3943L27.418 50.8025C27.2332 51.4996 27.1894 52.2258 27.289 52.9396C27.3887 53.6534 27.6299 54.3408 27.9989 54.9624L30.1907 53.7087C29.9173 53.2444 29.7733 52.7169 29.7733 52.1798C29.7733 51.6428 29.9173 51.1153 30.1907 50.651L21.9349 45.9427C21.6634 46.4069 21.2731 46.7923 20.8031 47.0602C20.3331 47.3282 19.7999 47.4692 19.2573 47.4692C18.7146 47.4692 18.1814 47.3282 17.7114 47.0602C17.2414 46.7923 16.8511 46.4069 16.5796 45.9427L8.32202 50.6546C8.59536 51.1189 8.73935 51.6464 8.73935 52.1835C8.73935 52.7205 8.59536 53.248 8.32202 53.7123L10.512 54.966Z" fill="url(#paint11_linear_7828_61693)"/>
                <path id="Vector_43" d="M41.6126 16.1224L43.8044 14.8687C44.0756 15.3344 44.4663 15.7214 44.9372 15.9904C45.4082 16.2595 45.9426 16.4011 46.4866 16.4011C47.0306 16.4011 47.565 16.2595 48.0359 15.9904C48.5068 15.7214 48.8976 15.3344 49.1688 14.8687L57.4264 19.5769C57.153 20.0409 57.009 20.5681 57.009 21.1048C57.009 21.6416 57.153 22.1688 57.4264 22.6328L49.1706 27.3428C48.8998 26.8766 48.5092 26.4892 48.0382 26.2198C47.5673 25.9504 47.0327 25.8086 46.4884 25.8086C45.9442 25.8086 45.4096 25.9504 44.9386 26.2198C44.4677 26.4892 44.077 26.8766 43.8062 27.3428L41.6144 26.0909C42.0416 25.3546 42.6339 24.7247 43.3459 24.2497C44.0579 23.7746 44.8707 23.467 45.7218 23.3505C46.5729 23.234 47.4397 23.3116 48.2557 23.5774C49.0717 23.8433 49.8152 24.2903 50.4291 24.8841L54.6538 22.4758C54.5349 22.0288 54.4736 21.5688 54.4711 21.1067C54.4736 20.6421 54.5349 20.1797 54.6538 19.7303L50.4309 17.3256C49.8174 17.9203 49.074 18.3683 48.2579 18.6349C47.4417 18.9016 46.5746 18.98 45.723 18.8639C44.8714 18.7479 44.0581 18.4406 43.3455 17.9657C42.633 17.4907 42.0401 16.8608 41.6126 16.1242V16.1224ZM35.9797 21.1139C35.9792 21.6505 35.8355 22.1775 35.5632 22.6418L37.755 23.8955C38.2539 23.051 38.5168 22.0907 38.5168 21.113C38.5168 20.1352 38.2539 19.175 37.755 18.3304L35.5632 19.5841C35.8366 20.0487 35.9803 20.5766 35.9797 21.1139Z" fill="url(#paint12_linear_7828_61693)"/>
                <path id="Vector_44" d="M14.3743 10.5664C14.8675 9.71912 15.5782 9.01528 16.4347 8.52586C17.2912 8.03644 18.2633 7.77874 19.2528 7.77874C20.2424 7.77874 21.2144 8.03644 22.071 8.52586C22.9275 9.01528 23.6382 9.71912 24.1314 10.5664L21.9396 11.8291C21.6688 11.3637 21.2785 10.9771 20.808 10.7082C20.3376 10.4393 19.8037 10.2977 19.2601 10.2977C18.7166 10.2977 18.1827 10.4393 17.7123 10.7082C17.2418 10.9771 16.8515 11.3637 16.5807 11.8291L14.3743 10.5664ZM27.9944 2.79865C27.4946 3.64255 27.2312 4.60263 27.2312 5.58031C27.2312 6.55799 27.4946 7.51808 27.9944 8.36199L30.1862 7.10824C29.9129 6.64396 29.7689 6.11648 29.7689 5.57942C29.7689 5.04235 29.9129 4.51487 30.1862 4.05058L27.9944 2.79865Z" fill="url(#paint13_linear_7828_61693)"/>
                <path id="Vector_45" d="M30.1953 4.04751C30.4664 3.58293 30.8566 3.19707 31.3266 2.92879C31.7967 2.6605 32.33 2.51924 32.8729 2.51924C33.4159 2.51924 33.9492 2.6605 34.4192 2.92879C34.8893 3.19707 35.2795 3.58293 35.5506 4.04751L37.7424 2.78476C37.2492 1.93831 36.5388 1.23521 35.6827 0.746313C34.8267 0.257418 33.8554 0 32.8666 0C31.8777 0 30.9064 0.257418 30.0504 0.746313C29.1944 1.23521 28.4839 1.93831 27.9907 2.78476L30.1953 4.04751Z" fill="#DEDC00"/>
                <path id="Vector_46" d="M2.95265 19.5843C3.22372 19.1189 3.61423 18.7323 4.08481 18.4635C4.55539 18.1947 5.0894 18.0532 5.63303 18.0532C6.17665 18.0532 6.71067 18.1947 7.18125 18.4635C7.65182 18.7323 8.04233 19.1189 8.31341 19.5843L16.5728 14.8724C16.2997 14.4081 16.1558 13.8806 16.1558 13.3436C16.1558 12.8066 16.2997 12.2791 16.5728 11.8148L14.381 10.561C13.6392 11.8137 13.4304 13.3056 13.8002 14.7101L9.56091 17.1255C8.94706 16.5335 8.20419 16.088 7.38916 15.8232C6.57413 15.5583 5.70855 15.4812 4.85869 15.5977C4.00883 15.7142 3.19722 16.0212 2.486 16.4952C1.77477 16.9692 1.18279 17.5976 0.755371 18.3324L2.95265 19.5843Z" fill="url(#paint14_linear_7828_61693)"/>
                <path id="Vector_47" d="M2.54024 21.1136C2.54065 20.577 2.68429 20.0499 2.95669 19.5856L0.76489 18.3319C0.266029 19.1768 0.00317383 20.1373 0.00317383 21.1154C0.00317383 22.0934 0.266029 23.054 0.76489 23.8988L2.95669 22.6361C2.68522 22.1734 2.54161 21.6483 2.54024 21.1136Z" fill="#EC6608"/>
                <path id="Vector_48" d="M60.1123 15.5355C58.6418 15.5349 57.2298 16.1043 56.1799 17.1212L51.9516 14.7111C52.1359 14.0156 52.1791 13.291 52.0788 12.579C51.9785 11.8669 51.7366 11.1815 51.3671 10.5621L49.1753 11.8158C49.4479 12.2803 49.5915 12.8077 49.5915 13.3446C49.5915 13.8816 49.4479 14.409 49.1753 14.8735L57.4329 19.5817C57.7042 19.1172 58.0946 18.7314 58.5648 18.4632C59.035 18.1949 59.5684 18.0537 60.1114 18.0537C60.6544 18.0537 61.1879 18.1949 61.6581 18.4632C62.1283 18.7314 62.5187 19.1172 62.79 19.5817L64.9818 18.328C64.4891 17.4819 63.7799 16.7786 62.9253 16.2884C62.0706 15.7983 61.1006 15.5387 60.1123 15.5355Z" fill="url(#paint15_linear_7828_61693)"/>
                <path id="Vector_49" d="M63.2095 21.1129C63.2102 21.6489 63.0672 22.1754 62.7949 22.639L64.9867 23.8928C65.4856 23.0482 65.7485 22.088 65.7485 21.1102C65.7485 20.1324 65.4856 19.1722 64.9867 18.3276L62.7949 19.5814C63.0682 20.0465 63.2113 20.5751 63.2095 21.1129Z" fill="#76B82A"/>
                <path id="Vector_50" d="M51.3683 10.5528L49.1765 11.8065C48.905 11.3424 48.5147 10.957 48.0447 10.6891C47.5747 10.4211 47.0415 10.2801 46.4988 10.2801C45.9561 10.2801 45.423 10.4211 44.953 10.6891C44.483 10.957 44.0926 11.3424 43.8212 11.8065L41.6294 10.5528C42.1226 9.70635 42.833 9.00325 43.689 8.51435C44.545 8.02546 45.5164 7.76804 46.5052 7.76804C47.4941 7.76804 48.4654 8.02546 49.3214 8.51435C50.1774 9.00325 50.8878 9.70635 51.3811 10.5528H51.3683ZM35.98 5.57394C35.9802 6.10924 35.8371 6.63508 35.5654 7.09827L37.7572 8.352C38.2561 7.50745 38.519 6.54721 38.519 5.56943C38.519 4.59166 38.2561 3.63142 37.7572 2.78687L35.5654 4.04962C35.8375 4.51264 35.9806 5.03858 35.98 5.57394Z" fill="url(#paint16_linear_7828_61693)"/>
                <path id="Vector_51" d="M49.1699 61.4718C49.4431 61.0078 49.587 60.4806 49.587 59.9438C49.587 59.4071 49.4431 58.8799 49.1699 58.4159L51.3617 57.1532C51.8617 57.9977 52.1252 58.9583 52.1252 59.9366C52.1252 60.9149 51.8617 61.8756 51.3617 62.7201L49.1699 61.4718ZM64.9892 54.9578L62.7974 53.704C62.5263 54.1694 62.1358 54.556 61.6652 54.8248C61.1947 55.0937 60.6606 55.2352 60.117 55.2352C59.5734 55.2352 59.0394 55.0937 58.5688 54.8248C58.0982 54.556 57.7077 54.1694 57.4366 53.704L55.2448 54.9668C55.7382 55.8136 56.4488 56.5171 57.3052 57.0062C58.1615 57.4953 59.1333 57.7529 60.1225 57.7529C61.1117 57.7529 62.0835 57.4953 62.9398 57.0062C63.7962 56.5171 64.5068 55.8136 65.0002 54.9668L64.9892 54.9578Z" fill="url(#paint17_linear_7828_61693)"/>
                <path id="Vector_52" d="M63.207 52.1745C63.2066 52.7111 63.0629 53.2382 62.7905 53.7025L64.9823 54.9562C65.4812 54.1116 65.7441 53.1514 65.7441 52.1736C65.7441 51.1958 65.4812 50.2356 64.9823 49.3911L62.7905 50.6448C63.0639 51.1094 63.2076 51.6372 63.207 52.1745Z" fill="#0090D7"/>
                <path id="Vector_53" d="M0.760832 54.9663L2.95263 53.7126C3.22432 54.1759 3.61454 54.5605 4.08418 54.8278C4.55382 55.0952 5.08637 55.2359 5.62844 55.2359C6.17052 55.2359 6.70307 55.0952 7.17271 54.8278C7.64234 54.5605 8.03257 54.1759 8.30426 53.7126L10.4961 54.9663C10.0022 55.8115 9.29178 56.5133 8.4362 57.0013C7.58062 57.4892 6.61004 57.7461 5.62205 57.7461C4.63406 57.7461 3.66348 57.4892 2.8079 57.0013C1.95232 56.5133 1.24189 55.8115 0.748047 54.9663H0.760832ZM16.1582 59.9434C16.1574 59.409 16.2991 58.8839 16.5692 58.4209L14.3774 57.1671C13.879 58.0119 13.6165 58.972 13.6165 59.9497C13.6165 60.9273 13.879 61.8875 14.3774 62.7323L16.5692 61.4695C16.2976 61.0057 16.1552 60.4791 16.1564 59.9434H16.1582Z" fill="url(#paint18_linear_7828_61693)"/>
                <path id="Vector_54" d="M2.5399 52.1737C2.53904 51.6391 2.68146 51.1138 2.95269 50.6512L0.760896 49.3975C0.262559 50.2422 0 51.2024 0 52.18C0 53.1577 0.262559 54.1179 0.760896 54.9626L2.95269 53.7089C2.67993 53.2423 2.53748 52.7125 2.5399 52.1737Z" fill="url(#paint19_linear_7828_61693)"/>
                <path id="Vector_55" d="M64.324 82.2339H34.4005V68.5763L42.554 63.924C43.1672 64.5171 43.9098 64.9638 44.7248 65.2297C45.5398 65.4956 46.4056 65.5738 47.2559 65.4582C48.1062 65.3425 48.9185 65.0362 49.6304 64.5627C50.3423 64.0891 50.935 63.4609 51.3632 62.7262L49.1714 61.4634C48.9698 61.8139 48.6999 62.1215 48.3774 62.3685C48.0549 62.6156 47.6862 62.7972 47.2923 62.9028C46.8984 63.0085 46.4873 63.0362 46.0826 62.9842C45.6779 62.9323 45.2875 62.8018 44.9341 62.6003C44.5806 62.3987 44.2711 62.1301 44.0232 61.8099C43.7753 61.4897 43.594 61.1242 43.4897 60.7345C43.3855 60.3448 43.3603 59.9385 43.4157 59.5392C43.4711 59.1398 43.6059 58.7552 43.8124 58.4076L41.6206 57.1538C41.2528 57.7739 41.0123 58.4595 40.913 59.1714C40.8136 59.8834 40.8573 60.6076 41.0416 61.3029L34.4078 65.0911V57.5363C35.8208 57.14 37.0226 56.217 37.7594 54.962L35.5676 53.7083C35.2966 54.1737 34.906 54.5603 34.4355 54.8291C33.9649 55.0979 33.4309 55.2395 32.8872 55.2395C32.3436 55.2395 31.8096 55.0979 31.339 54.8291C30.8685 54.5603 30.4779 54.1737 30.2069 53.7083L28.0151 54.962C28.7523 56.2174 29.9549 57.1404 31.3685 57.5363V65.0947L24.7347 61.3065C24.8526 60.8593 24.914 60.3994 24.9173 59.9373C24.917 58.962 24.6555 58.0042 24.1593 57.161L21.9675 58.4148C22.3781 59.1166 22.4895 59.9508 22.2773 60.7338C22.0651 61.5168 21.5467 62.1845 20.836 62.59C20.1254 62.9955 19.2808 63.1055 18.488 62.8959C17.6952 62.6863 17.0191 62.1743 16.6086 61.4724L14.4168 62.7352C14.8468 63.4635 15.439 64.0857 16.1485 64.5544C16.8581 65.0231 17.6664 65.3262 18.5121 65.4406C19.3579 65.555 20.2189 65.4777 21.03 65.2146C21.841 64.9515 22.5807 64.5096 23.1931 63.9222L31.3503 68.5763V82.2339H1.42312C1.1533 82.2339 0.894531 82.3398 0.703739 82.5282C0.512947 82.7166 0.405762 82.9722 0.405762 83.2387C0.405762 83.5052 0.512947 83.7608 0.703739 83.9492C0.894531 84.1376 1.1533 84.2435 1.42312 84.2435H31.2936C31.0963 85.4395 30.4989 86.5357 29.5968 87.3571C27.6626 89.1484 24.2233 89.9385 19.6497 89.6427C17.7809 89.5014 15.9014 89.6064 14.0606 89.9547C13.9667 89.9556 13.8737 89.974 13.7867 90.0089L13.7629 90.0197C8.52454 91.1832 6.45694 94.4646 6.07703 96.678C6.04427 96.8748 6.0918 97.0764 6.20921 97.2387C6.32663 97.401 6.50437 97.5107 6.70352 97.5439C6.74577 97.5509 6.78853 97.5545 6.83137 97.5547C7.01161 97.5542 7.18585 97.4907 7.32324 97.3755C7.46063 97.2602 7.55231 97.1007 7.58206 96.9251C7.61129 96.761 8.07156 94.2914 11.0067 92.6174C10.7492 93.3389 10.6816 94.1327 10.6159 94.9372C10.5227 96.0899 10.415 97.396 9.71176 98.8229C9.66206 98.9124 9.63131 99.011 9.62136 99.1127C9.61141 99.2143 9.62247 99.3169 9.65387 99.4142C9.68527 99.5115 9.73636 99.6015 9.80403 99.6787C9.87171 99.756 9.95456 99.8188 10.0476 99.8634C10.1406 99.9081 10.2418 99.9336 10.3451 99.9384C10.4483 99.9433 10.5516 99.9274 10.6484 99.8916C10.7453 99.8559 10.8338 99.8011 10.9086 99.7306C10.9834 99.66 11.0429 99.5752 11.0835 99.4813C11.9127 97.8001 12.0351 96.2793 12.1355 95.0581C12.2853 93.2325 12.3675 92.2223 14.3164 91.4213C15.0655 91.2732 15.8241 91.1761 16.5867 91.1309C15.7045 92.2006 15.5091 93.6781 15.3081 95.2096C15.0232 97.4176 14.6689 100.163 12.2981 102.938C12.2331 103.014 12.1839 103.102 12.1535 103.198C12.123 103.293 12.1119 103.393 12.1206 103.492C12.1293 103.592 12.1578 103.688 12.2044 103.777C12.251 103.865 12.3148 103.944 12.3921 104.008C12.4695 104.072 12.5589 104.121 12.6552 104.151C12.7516 104.181 12.853 104.192 12.9536 104.184C13.0543 104.175 13.1523 104.147 13.2419 104.101C13.3316 104.055 13.4112 103.992 13.4762 103.915C16.1392 100.804 16.5264 97.8109 16.8351 95.4062C17.1766 92.7617 17.4287 91.5639 19.657 91.1562C24.6781 91.461 28.3731 90.5591 30.6416 88.4593C30.8753 88.2384 31.0943 88.0028 31.2973 87.7539C30.6726 89.5453 29.3904 91.5801 26.7548 93.7737C25.4044 94.8806 23.9556 95.8647 22.426 96.7141C20.0625 98.0941 18.3547 99.0917 17.7374 102.548C17.7023 102.745 17.7479 102.947 17.864 103.111C17.9801 103.275 18.1573 103.386 18.3566 103.421C18.4005 103.43 18.4451 103.434 18.4899 103.434C18.6691 103.433 18.8425 103.371 18.9794 103.256C19.1164 103.142 19.2082 102.984 19.2388 102.81C19.7337 100.035 20.9666 99.3172 23.2004 98.0111L23.847 97.6323C23.3447 98.8066 23.0908 99.9774 22.8534 101.06C22.3054 103.585 21.8379 105.75 18.8351 107.702C18.6969 107.79 18.5914 107.921 18.5344 108.073C18.4775 108.226 18.4722 108.393 18.5193 108.548C18.5664 108.704 18.6634 108.841 18.7958 108.938C18.9281 109.035 19.0887 109.086 19.2534 109.085C19.4012 109.085 19.5457 109.042 19.6698 108.963C23.2059 106.674 23.7886 103.979 24.3529 101.375C24.4169 101.076 24.4808 100.782 24.5502 100.486C24.7109 101.285 24.9447 102.072 25.1712 102.831C25.6735 104.511 26.1922 106.248 25.9018 107.882C25.8668 108.079 25.9123 108.282 26.0284 108.445C26.1445 108.609 26.3217 108.721 26.521 108.755C26.5651 108.762 26.6097 108.766 26.6543 108.766C26.8336 108.766 27.0072 108.704 27.1445 108.59C27.2818 108.476 27.3741 108.318 27.405 108.144C27.7575 106.159 27.1877 104.249 26.6361 102.4C25.7941 99.5805 25.0671 97.1452 27.7484 94.9102C29.995 93.0359 31.3521 91.2391 32.1722 89.5922C32.3439 91.5639 32.5758 93.2992 32.8133 94.8596C33.3612 98.4386 32.448 99.5372 31.4142 100.813C30.3804 102.088 29.1877 103.529 29.405 107.202C29.4167 107.394 29.502 107.574 29.6435 107.706C29.7851 107.838 29.9722 107.911 30.1667 107.911H30.2123C30.4143 107.899 30.6031 107.808 30.7374 107.659C30.8716 107.509 30.9403 107.313 30.9283 107.114C30.7457 104.025 31.6388 102.925 32.5923 101.761C32.9743 101.32 33.32 100.849 33.6261 100.353C34.0936 104.502 33.6644 107.691 29.9731 112.811C29.8558 112.973 29.8088 113.175 29.8424 113.372C29.876 113.569 29.9874 113.745 30.1521 113.86C30.3168 113.976 30.5213 114.023 30.7207 113.99C30.92 113.956 31.0979 113.846 31.2151 113.684C36.2343 106.717 35.6243 102.902 34.6142 96.586C34.2781 94.488 33.8836 92.0672 33.6498 89.1159C34.4863 90.8387 35.6243 92.1303 36.6891 93.3317C39.3777 96.3659 41.6992 98.9852 38.2873 107.74C38.2146 107.926 38.2197 108.133 38.3016 108.316C38.3834 108.499 38.5353 108.642 38.7238 108.714C38.8113 108.747 38.9041 108.764 38.9978 108.764C39.1523 108.764 39.3033 108.718 39.4307 108.632C39.5582 108.546 39.6563 108.423 39.7119 108.281C41.4745 103.76 41.7741 100.654 41.3101 98.3052C42.3585 99.6545 43.0453 101.485 42.6745 104.94C42.6636 105.038 42.6725 105.138 42.7005 105.233C42.7286 105.328 42.7754 105.416 42.8382 105.493C42.9009 105.57 42.9785 105.635 43.0664 105.682C43.1543 105.729 43.2507 105.759 43.3503 105.77H43.4325C43.6206 105.77 43.802 105.701 43.9418 105.577C44.0817 105.452 44.1703 105.282 44.1905 105.097C44.3151 104.028 44.3286 102.95 44.2307 101.879C45.2079 102.869 46.2764 103.791 47.1659 104.287C47.3423 104.384 47.5507 104.409 47.7454 104.355C47.9401 104.302 48.1054 104.174 48.2052 104C48.2545 103.914 48.2862 103.819 48.2983 103.721C48.3104 103.622 48.3027 103.523 48.2757 103.427C48.2488 103.332 48.203 103.243 48.141 103.165C48.0791 103.087 48.0022 103.022 47.9147 102.974C46.3293 102.092 43.8325 99.3659 42.9832 98.04C42.9713 98.0209 42.9579 98.0028 42.943 97.9859C42.3001 96.9919 41.5129 96.2505 40.7512 95.5505C40.1939 95.0574 39.6766 94.5218 39.2042 93.9487C39.1968 93.9403 39.1889 93.9325 39.1804 93.9252C38.7457 93.3732 38.2855 92.8428 37.827 92.3341C36.7183 91.084 35.5895 89.8086 34.8297 88.0534C36.4498 89.4533 38.9192 89.9746 41.5677 90.2686H41.5932C45.3302 90.6745 45.8691 93.3353 46.4937 96.42C46.7549 97.7063 47.0252 99.0412 47.5622 100.208C47.6465 100.39 47.8004 100.531 47.99 100.6C48.1796 100.67 48.3894 100.662 48.5732 100.579C48.757 100.496 48.8999 100.344 48.9702 100.157C49.0406 99.9693 49.0328 99.7621 48.9485 99.5805C48.4864 98.5812 48.2453 97.3906 47.9896 96.1314C47.8472 95.4333 47.6992 94.7189 47.5093 94.0172C48.1522 94.3455 48.8207 94.6143 49.4855 94.8777C51.2353 95.5722 52.7458 96.1711 53.3906 97.7207C53.448 97.8592 53.5459 97.9776 53.6718 98.0608C53.7977 98.144 53.9459 98.1883 54.0974 98.1879C54.1958 98.188 54.2932 98.169 54.3842 98.132C54.5713 98.056 54.7203 97.9098 54.7984 97.7255C54.8765 97.5412 54.8773 97.3338 54.8006 97.1488C53.913 95.0094 51.9495 94.2301 50.0517 93.4778C48.5357 92.8771 47.1056 92.3089 46.1905 91.0876C46.0773 90.9361 45.9549 90.7882 45.8252 90.6457C50.6125 91.0768 55.2098 91.8922 56.4901 96.5517C56.5331 96.711 56.6278 96.8519 56.7599 96.9526C56.8919 97.0533 57.0539 97.1084 57.2207 97.1092C57.2886 97.1087 57.3561 97.0996 57.4217 97.0821C57.6165 97.0289 57.7822 96.9018 57.8825 96.7284C57.9827 96.555 58.0095 96.3495 57.9568 96.1567C56.26 89.971 49.9513 89.4623 44.3859 89.0113C38.6745 88.5495 35.0124 88.0408 34.4863 84.2327H64.324C64.5938 84.2327 64.8526 84.1268 65.0434 83.9384C65.2341 83.7499 65.3413 83.4944 65.3413 83.2279C65.3413 82.9614 65.2341 82.7058 65.0434 82.5174C64.8526 82.3289 64.5938 82.2231 64.324 82.2231V82.2339Z" fill="#213A8F"/>
            </g>
        </g>
    </g>
    <defs>
        <linearGradient id="paint0_linear_7828_61693" x1="8.31665" y1="21.1153" x2="30.1962" y2="21.1153" gradientUnits="userSpaceOnUse">
            <stop stop-color="#EC6608"/>
            <stop offset="1" stop-color="#F9B000"/>
        </linearGradient>
        <linearGradient id="paint1_linear_7828_61693" x1="21.9341" y1="13.3432" x2="43.8137" y2="13.3432" gradientUnits="userSpaceOnUse">
            <stop stop-color="#FFED00"/>
            <stop offset="1" stop-color="#BCCF00"/>
        </linearGradient>
        <linearGradient id="paint2_linear_7828_61693" x1="21.9341" y1="29.6421" x2="43.8137" y2="29.6421" gradientUnits="userSpaceOnUse">
            <stop stop-color="#EC6608"/>
            <stop offset="1" stop-color="#C8D400"/>
        </linearGradient>
        <linearGradient id="paint3_linear_7828_61693" x1="0.754982" y1="28.8816" x2="16.5743" y2="28.8816" gradientUnits="userSpaceOnUse">
            <stop stop-color="#E40428"/>
            <stop offset="1" stop-color="#EC6608"/>
        </linearGradient>
        <linearGradient id="paint4_linear_7828_61693" x1="8.31654" y1="36.6493" x2="32.8756" y2="36.6493" gradientUnits="userSpaceOnUse">
            <stop stop-color="#B70E0C"/>
            <stop offset="1" stop-color="#C80973"/>
        </linearGradient>
        <linearGradient id="paint5_linear_7828_61693" x1="49.1706" y1="28.8751" x2="64.9917" y2="28.8751" gradientUnits="userSpaceOnUse">
            <stop stop-color="#65B32E"/>
            <stop offset="1" stop-color="#C8D400"/>
        </linearGradient>
        <linearGradient id="paint6_linear_7828_61693" x1="32.8701" y1="36.6364" x2="57.4273" y2="36.6364" gradientUnits="userSpaceOnUse">
            <stop stop-color="#0081A7"/>
            <stop offset="1" stop-color="#76B82A"/>
        </linearGradient>
        <linearGradient id="paint7_linear_7828_61693" x1="49.1698" y1="44.4106" x2="64.9891" y2="44.4106" gradientUnits="userSpaceOnUse">
            <stop stop-color="#76B82A"/>
            <stop offset="1" stop-color="#0081A7"/>
        </linearGradient>
        <linearGradient id="paint8_linear_7828_61693" x1="21.9314" y1="43.6475" x2="43.8128" y2="43.6475" gradientUnits="userSpaceOnUse">
            <stop stop-color="#C80973"/>
            <stop offset="1" stop-color="#007BC4"/>
        </linearGradient>
        <linearGradient id="paint9_linear_7828_61693" x1="35.5557" y1="52.1797" x2="57.4334" y2="52.1797" gradientUnits="userSpaceOnUse">
            <stop stop-color="#213A8F"/>
            <stop offset="1" stop-color="#009FE3"/>
        </linearGradient>
        <linearGradient id="paint10_linear_7828_61693" x1="14.3719" y1="56.3948" x2="24.1364" y2="56.3948" gradientUnits="userSpaceOnUse">
            <stop stop-color="#831F82"/>
            <stop offset="1" stop-color="#5C2483"/>
        </linearGradient>
        <linearGradient id="paint11_linear_7828_61693" x1="1004" y1="2569.21" x2="3623.86" y2="2569.21" gradientUnits="userSpaceOnUse">
            <stop stop-color="#831F82"/>
            <stop offset="1" stop-color="#5C2483"/>
        </linearGradient>
        <linearGradient id="paint12_linear_7828_61693" x1="35.5523" y1="21.1067" x2="57.4337" y2="21.1067" gradientUnits="userSpaceOnUse">
            <stop stop-color="#C8D400"/>
            <stop offset="1" stop-color="#65B32E"/>
        </linearGradient>
        <linearGradient id="paint13_linear_7828_61693" x1="14.3743" y1="7.31028" x2="30.1935" y2="7.31028" gradientUnits="userSpaceOnUse">
            <stop stop-color="#FDC300"/>
            <stop offset="1" stop-color="#FFD500"/>
        </linearGradient>
        <linearGradient id="paint14_linear_7828_61693" x1="0.755371" y1="15.0727" x2="16.5728" y2="15.0727" gradientUnits="userSpaceOnUse">
            <stop stop-color="#EF7D00"/>
            <stop offset="1" stop-color="#FFD500"/>
        </linearGradient>
        <linearGradient id="paint15_linear_7828_61693" x1="49.1698" y1="15.0647" x2="64.9873" y2="15.0647" gradientUnits="userSpaceOnUse">
            <stop stop-color="#BCCF00"/>
            <stop offset="1" stop-color="#FFED00"/>
        </linearGradient>
        <linearGradient id="paint16_linear_7828_61693" x1="35.5526" y1="7.2967" x2="51.3683" y2="7.2967" gradientUnits="userSpaceOnUse">
            <stop stop-color="#C8D400"/>
            <stop offset="1" stop-color="#A2C617"/>
        </linearGradient>
        <linearGradient id="paint17_linear_7828_61693" x1="4310.99" y1="2962.92" x2="5682.04" y2="2962.92" gradientUnits="userSpaceOnUse">
            <stop stop-color="#213A8F"/>
            <stop offset="1" stop-color="#009FE3"/>
        </linearGradient>
        <linearGradient id="paint18_linear_7828_61693" x1="0.760832" y1="58.2224" x2="16.5783" y2="58.2224" gradientUnits="userSpaceOnUse">
            <stop stop-color="#E50071"/>
            <stop offset="1" stop-color="#831F82"/>
        </linearGradient>
        <linearGradient id="paint19_linear_7828_61693" x1="-10.1725" y1="52.1809" x2="10.8998" y2="52.1809" gradientUnits="userSpaceOnUse">
            <stop stop-color="#E94190"/>
            <stop offset="1" stop-color="#A71680"/>
        </linearGradient>
        <clipPath id="clip0_7828_61693">
            <rect width="209" height="114" fill="white"/>
        </clipPath>
    </defs>
</svg>